<svg xmlns="http://www.w3.org/2000/svg" viewBox="0 0 95 40"><g fill="#444642"><path d="M58.561 40c-3.294 0-5.018-2.335-5.018-4.642 0-3.802 3.321-5.908 9.354-5.936v-.06c0-1.991-.925-3.086-2.752-3.255l-3.218.002v-2.587h3.51v.012c4.766.184 5.777 3.615 5.777 6.492v5.711c0 1.514.082 2.696.253 3.615l.056.302h-3.115l-.192-1.64C62.111 39.265 60.409 40 58.561 40m4.206-8.147c-3.898 0-5.874 1.073-5.874 3.189 0 1.766 1.243 2.395 2.407 2.395 1.982 0 3.132-1.284 3.514-2.383.095-.279.147-.564.147-.801v-2.399l-.194-.001m13.158-15.117h3.349v22.917h-3.349V16.736zm-6.582 7.131h3.35v15.785h-3.35V23.867zM46.519 39.653V28.888c0-1.983-.039-3.448-.128-4.748l-.018-.273h3.005l.076 2.361c.789-1.503 2.172-2.509 3.731-2.679v-.02l.26-.008h1.63v2.587h-1.579c-1.798 0-3.154 1.286-3.537 3.356-.061.36-.124.794-.124 1.248v8.941h-3.316zm24.435-17.862c-1.12 0-1.964-.842-1.964-1.96 0-1.135.872-1.991 2.029-1.991s1.997.837 1.997 1.991a1.848 1.848 0 0 1-.521 1.367c-.379.382-.925.593-1.541.593M35.219 40c-1.693 0-5.629-.677-5.629-6.946v-9.186h3.35v8.713c0 3.098 1.05 4.604 3.211 4.604 1.844 0 3.031-1.274 3.487-2.365a3.74 3.74 0 0 0 .237-1.324v-9.628h3.35v11.364c0 1.742.04 3.059.127 4.145l.022.276h-3.033l-.133-2.066c-.76.995-2.313 2.413-4.989 2.413m-19.884-.347V17.872h12.221v2.815h-8.903v6.211h8.421v2.784h-8.421v7.157h9.385v2.815H15.335zM11.832 15.237c-.632.488-8.282 6.11-11.458 3.493-.752-.781-.307-2.392.774-3.529l.175-.172c.443-.419 4.503-2.671 6.14-3.683 3.842-2.38 7.821-6.051 15.659-9.743 5.62-2.647 14.45-2.712 19.414 5.233-8.676-9.587-27.443 5.887-30.704 8.401M86.525.57l-1.524.042c.528.502 1.036.488 1.524-.042m-.763 2.65c1.216-.09 2.183-.125 2.538-.074-1.276-.325-1.863-.176-2.538.074m-1.879.552c.864-.143 1.395-.373 1.878-.552-1.41.103-3.157.279-4.674.471 1.12.154 2.175.388 2.796.081m10.701-2.641c-1.019.489-1.91-.196-3.111.113.499.535 1.069.195.497-.042.119.058 4.345.665 2.614-.071M77.598 4.368c.186-.19 1.673-.446 3.49-.677-1.255-.17-2.591-.239-3.49.677m14.057-2.709l-1.95.131.289.106c-.23-.023.158.033.605.087.237.021.458.032.63.067.08.02.176.034.218.064.02.014.036.027.05.042l.02.02.008.009c-.003.02.012-.039.021-.071l.004-.012a2.46 2.46 0 0 0-.025.09c-.007.027-.006.011-.01.019-.008.009-.415.015-.816-.027-.384-.058-.839-.138-1.362-.198a12.92 12.92 0 0 0-1.676-.054c-.594.03-1.206.102-1.797.236-1.17.295-2.078.173-3.291.323-.056.007-.501.053-.665.089-.305.044-1.064.303-1.242.311.041.268-.451.187-.68.135-.014.077.001.157-.043.232-.029-.003-.316.096-.379.116-.292.125-.652-.021-.969-.082 0 0-.009-.187-.024-.215-1.523.584-3.458 1.24-3.737-.029.56 2.536-10.913.736-11.355 3.895-.01.065 4.295-1.157 5.041-1.342-5.822 2.377-9.738 6.068-15.644 8.327-3.528 1.432-8.56 3.022-11.927.126-1.826-1.57-3.221-4.491-4.522-6.122-.862-1.081-1.881-1.812-3.014-2.261a13.273 13.273 0 0 1 1.535-.069c3.085.058 5.807 1.749 6.613 2.479 5.932 5.055 12.662-1.273 18.337-3.408.424.002 1.448-.067 1.412-.082.391-.214.812-.426 1.244-.634a5.35 5.35 0 0 1-1.014.135c.616-.2 1.172-.35 1.657-.438 1.357-.609 4.959-1.637 5.216-1.675.416-.077.831-.142 1.246-.185a1.638 1.638 0 0 1-.162.09 5.983 5.983 0 0 1-.552.186 1.683 1.683 0 0 1-.306.137c.442-.071.774-.134 1.267.265-.992-.805 7.8-.959 9.046-.987.734.006 1.255.551 1.551.491.339-.069 1.593-.118 1.951-.132 0 0 .444-.162.478-.185.276-.205.364-.035.686-.154.22-.052.268-.152.467-.101.059.007.142-.114.171-.111.239.004.198.209.254-.074.016-.078.327.304.425.263.137-.089.33-.011.515-.041.034-.023.068-.044.074-.07.069-.041.152-.001.244-.013.279-.034.498-.209.75-.248.157-.028.716.004 1.26.067.547.071 1.077.186 1.171.283l.003.003a.471.471 0 0 0-.07.01s-.46-.081-.583-.087c-.152-.002-.329-.04-.479-.037-.244.018-.305.069.074.076.38.018.659.053.388.051-.273-.006-.631.003-.991.015-.719.019 1.799.106 1.943.111l.12.048c.441.004.876.013 1.27.012.206.003.825-.056 1.031-.003m-14.35.452c-.063-.03.287.042.905.21.017-.077.029-.293.029-.332a3.713 3.713 0 0 0-1.597.087c.509.522.944.193.663.035"/></g></svg>